<svg width="50" height="50" viewBox="0 0 50 50" fill="none" xmlns="http://www.w3.org/2000/svg">
<g id="la:gift">
<path id="Vector" d="M18.75 7.8125C16.1797 7.8125 14.0625 9.92969 14.0625 12.5C14.0625 13.05 14.1781 13.5687 14.3562 14.0625H6.25V23.4375H7.8125V43.75H42.1875V23.4375H43.75V14.0625H35.6438C35.8314 13.5626 35.9308 13.0339 35.9375 12.5C35.9375 9.92969 33.8203 7.8125 31.25 7.8125C28.5156 7.8125 26.6594 9.8875 25.4391 11.6219C25.275 11.8531 25.1469 12.0781 25 12.3047C24.8531 12.0781 24.725 11.8516 24.5609 11.6203C23.3406 9.88906 21.4844 7.8125 18.75 7.8125ZM18.75 10.9375C19.7266 10.9375 20.9969 11.9875 21.9734 13.3797C22.2109 13.7203 22.1734 13.7391 22.3641 14.0625H18.75C17.8656 14.0625 17.1875 13.3844 17.1875 12.5C17.1875 11.6156 17.8656 10.9375 18.75 10.9375ZM31.25 10.9375C32.1344 10.9375 32.8125 11.6156 32.8125 12.5C32.8125 13.3844 32.1344 14.0625 31.25 14.0625H27.6359C27.8266 13.7391 27.7891 13.7203 28.0266 13.3781C29.0047 11.9891 30.2734 10.9375 31.25 10.9375ZM9.375 17.1875H40.625V20.3125H26.5625V18.75H23.4375V20.3125H9.375V17.1875ZM10.9375 23.4375H39.0625V40.625H26.5625V25H23.4375V40.625H10.9375V23.4375Z" fill="#787D62"/>
</g>
</svg>
