<svg width="51" height="50" viewBox="0 0 51 50" fill="none" xmlns="http://www.w3.org/2000/svg">
<g id="la:shipping-fast" clip-path="url(#clip0_77_13)">
<path id="Vector" d="M0.25 9.375V12.5H29.9375V35.9375H20.3188C19.6219 33.2516 17.2062 31.25 14.3125 31.25C11.4187 31.25 9.00313 33.2516 8.30625 35.9375H6.5V28.125H3.375V39.0625H8.30625C9.00313 41.7484 11.4187 43.75 14.3125 43.75C17.2062 43.75 19.6219 41.7484 20.3188 39.0625H33.3063C34.0031 41.7484 36.4188 43.75 39.3125 43.75C42.2062 43.75 44.6219 41.7484 45.3187 39.0625H50.25V26.3188L50.1516 26.0734L47.0266 16.6984L46.6875 15.625H33.0625V9.375H0.25ZM1.8125 15.625V18.75H15.875V15.625H1.8125ZM33.0625 18.75H44.4391L47.125 26.7578V35.9375H45.3187C44.6219 33.2516 42.2062 31.25 39.3125 31.25C36.4188 31.25 34.0031 33.2516 33.3063 35.9375H33.0625V18.75ZM3.375 21.875V25H12.75V21.875H3.375ZM14.3125 34.375C16.0578 34.375 17.4375 35.7547 17.4375 37.5C17.4375 39.2453 16.0578 40.625 14.3125 40.625C12.5672 40.625 11.1875 39.2453 11.1875 37.5C11.1875 35.7547 12.5672 34.375 14.3125 34.375ZM39.3125 34.375C41.0578 34.375 42.4375 35.7547 42.4375 37.5C42.4375 39.2453 41.0578 40.625 39.3125 40.625C37.5672 40.625 36.1875 39.2453 36.1875 37.5C36.1875 35.7547 37.5672 34.375 39.3125 34.375Z" fill="#787D62"/>
</g>
<defs>
<clipPath id="clip0_77_13">
<rect width="50" height="50" fill="white" transform="translate(0.25)"/>
</clipPath>
</defs>
</svg>
