<svg width="51" height="50" viewBox="0 0 51 50" fill="none" xmlns="http://www.w3.org/2000/svg">
<g id="la:shopping-cart">
<path id="Vector" d="M8.3125 10.9375C7.45312 10.9375 6.75 11.6406 6.75 12.5C6.75 13.3594 7.45312 14.0625 8.3125 14.0625H11.7797L15.8812 30.4688C16.2281 31.8594 17.475 32.8125 18.9078 32.8125H36.8281C38.2375 32.8125 39.4344 31.8781 39.8063 30.5172L43.8594 15.625H17.6875L18.4688 18.75H39.8063L36.8281 29.6875H18.9078L14.8063 13.2813C14.6373 12.6083 14.2473 12.0115 13.6988 11.5866C13.1503 11.1616 12.4751 10.9331 11.7812 10.9375H8.3125ZM34.875 32.8125C32.3047 32.8125 30.1875 34.9297 30.1875 37.5C30.1875 40.0703 32.3047 42.1875 34.875 42.1875C37.4453 42.1875 39.5625 40.0703 39.5625 37.5C39.5625 34.9297 37.4453 32.8125 34.875 32.8125ZM20.8125 32.8125C18.2422 32.8125 16.125 34.9297 16.125 37.5C16.125 40.0703 18.2422 42.1875 20.8125 42.1875C23.3828 42.1875 25.5 40.0703 25.5 37.5C25.5 34.9297 23.3828 32.8125 20.8125 32.8125ZM20.8125 35.9375C21.6922 35.9375 22.375 36.6219 22.375 37.5C22.375 38.3797 21.6906 39.0625 20.8125 39.0625C19.9328 39.0625 19.25 38.3781 19.25 37.5C19.25 36.6203 19.9344 35.9375 20.8125 35.9375ZM34.875 35.9375C35.7547 35.9375 36.4375 36.6219 36.4375 37.5C36.4375 38.3797 35.7531 39.0625 34.875 39.0625C33.9953 39.0625 33.3125 38.3781 33.3125 37.5C33.3125 36.6203 33.9969 35.9375 34.875 35.9375Z" fill="#787D62"/>
</g>
</svg>
